<svg id="svg" version="1.1" xmlns="http://www.w3.org/2000/svg" xmlns:xlink="http://www.w3.org/1999/xlink" width="400" height="437.8548895899053" viewBox="0, 0, 400,437.8548895899053"><g id="svgg"><path id="path0" d="M206.000 18.233 C 205.450 18.326,201.850 18.582,198.000 18.803 C 189.234 19.304,183.903 19.848,179.800 20.659 C 178.040 21.006,175.160 21.524,173.400 21.809 C 171.640 22.094,169.390 22.529,168.400 22.776 C 156.661 25.700,150.452 27.378,148.888 28.050 C 147.850 28.496,145.830 29.283,144.400 29.800 C 142.970 30.316,140.900 31.096,139.800 31.534 C 138.700 31.971,136.810 32.714,135.600 33.185 C 132.634 34.339,130.557 35.310,122.800 39.170 C 116.165 42.472,114.747 43.242,111.800 45.143 C 110.920 45.711,109.390 46.566,108.400 47.043 C 107.410 47.519,105.701 48.560,104.601 49.355 C 103.502 50.150,102.450 50.800,102.263 50.800 C 102.077 50.800,100.456 51.926,98.662 53.302 C 96.868 54.679,94.860 56.145,94.200 56.562 C 92.058 57.913,85.817 62.655,85.200 63.399 C 84.870 63.797,82.980 65.425,81.000 67.016 C 77.469 69.854,62.272 84.833,60.928 86.800 C 60.552 87.350,59.155 89.093,57.822 90.674 C 56.490 92.254,54.631 94.594,53.692 95.874 C 50.677 99.979,48.012 103.747,46.689 105.774 C 45.980 106.860,44.737 108.750,43.927 109.974 C 43.117 111.198,41.428 114.000,40.173 116.200 C 38.919 118.400,37.212 121.296,36.381 122.635 C 32.902 128.240,25.600 144.135,25.600 146.102 C 25.600 146.388,25.318 147.025,24.973 147.517 C 24.628 148.010,24.016 149.535,23.613 150.906 C 23.210 152.278,22.323 154.840,21.642 156.600 C 20.960 158.360,20.402 160.168,20.401 160.617 C 20.401 161.066,19.439 165.026,18.265 169.417 C 16.099 177.516,15.373 180.920,14.813 185.600 C 14.642 187.030,14.385 188.650,14.243 189.200 C 12.885 194.458,11.906 225.393,12.815 234.319 C 13.055 236.673,13.469 240.760,13.734 243.400 C 14.000 246.040,14.373 248.448,14.563 248.751 C 14.754 249.053,15.064 250.824,15.253 252.685 C 15.583 255.943,16.718 261.104,18.400 267.000 C 18.840 268.540,19.646 271.648,20.193 273.907 C 20.739 276.165,21.445 278.513,21.761 279.124 C 22.077 279.736,22.634 281.397,22.999 282.818 C 23.364 284.238,24.168 286.480,24.787 287.800 C 25.405 289.120,26.310 291.370,26.797 292.800 C 27.285 294.230,28.191 296.480,28.811 297.800 C 29.431 299.120,30.689 301.910,31.607 304.000 C 32.525 306.090,33.519 308.073,33.816 308.407 C 34.112 308.740,35.458 311.159,36.807 313.781 C 38.156 316.404,39.606 318.990,40.030 319.529 C 40.453 320.067,40.800 320.686,40.800 320.905 C 40.800 321.409,46.367 329.832,48.794 333.000 C 49.805 334.320,51.066 336.120,51.597 337.000 C 52.581 338.632,54.551 341.056,58.300 345.246 C 59.455 346.537,60.400 347.799,60.400 348.051 C 60.400 348.303,62.299 350.456,64.619 352.835 C 76.905 365.433,80.801 369.089,85.043 372.000 C 85.524 372.330,87.673 374.019,89.817 375.754 C 91.962 377.489,94.096 379.109,94.559 379.354 C 95.021 379.599,96.886 380.922,98.703 382.293 C 100.520 383.665,102.766 385.175,103.695 385.648 C 104.624 386.122,106.055 387.049,106.875 387.709 C 107.695 388.368,109.499 389.473,110.883 390.164 C 112.267 390.856,116.137 392.914,119.481 394.738 C 122.826 396.563,126.966 398.655,128.681 399.388 C 130.397 400.121,133.960 401.655,136.600 402.797 C 139.240 403.939,142.300 405.149,143.400 405.486 C 144.500 405.822,146.030 406.338,146.800 406.631 C 152.917 408.962,176.286 415.158,183.800 416.443 C 185.340 416.706,187.769 417.254,189.199 417.661 C 193.342 418.839,198.166 418.693,199.410 417.351 C 203.218 413.243,200.136 394.515,193.922 384.000 C 193.337 383.010,192.624 381.660,192.337 381.000 C 190.719 377.277,182.227 367.915,177.688 364.850 C 169.026 359.002,164.528 358.028,150.457 358.955 C 131.120 360.228,127.964 359.805,120.570 354.943 C 111.341 348.875,106.785 339.136,107.325 326.633 L 107.575 320.842 105.846 318.720 C 100.327 311.945,101.150 306.446,108.163 303.235 C 113.318 300.875,113.772 299.320,109.183 299.747 C 100.945 300.513,96.810 296.060,98.577 288.325 C 98.894 286.936,99.369 282.560,99.632 278.600 C 100.421 266.751,99.868 265.620,92.035 263.057 C 83.096 260.133,82.035 259.222,82.749 255.083 C 83.248 252.188,85.945 246.647,88.023 244.245 C 88.806 243.340,89.873 241.880,90.394 241.000 C 90.915 240.120,92.075 238.579,92.971 237.577 C 93.867 236.574,94.913 235.224,95.294 234.577 C 96.469 232.587,98.956 229.318,100.106 228.252 C 100.708 227.694,101.200 227.016,101.200 226.745 C 101.200 226.473,101.877 225.430,102.705 224.426 C 103.532 223.422,104.644 221.700,105.176 220.600 C 105.707 219.500,106.638 217.970,107.246 217.200 C 112.094 211.051,114.306 202.862,113.406 194.400 C 112.562 186.466,112.174 170.640,112.754 167.800 C 112.979 166.700,113.352 164.270,113.583 162.400 C 114.325 156.388,117.835 143.638,120.174 138.458 C 120.958 136.721,121.600 135.063,121.600 134.775 C 121.600 134.487,122.439 132.439,123.465 130.225 C 125.095 126.705,126.253 124.590,129.938 118.400 C 130.396 117.630,131.303 115.999,131.953 114.776 C 132.603 113.553,133.418 112.317,133.765 112.029 C 134.111 111.742,134.948 110.540,135.624 109.358 C 136.300 108.177,137.078 107.073,137.354 106.905 C 137.629 106.737,138.407 105.790,139.082 104.800 C 141.840 100.755,154.165 88.308,158.000 85.695 C 159.430 84.721,161.050 83.510,161.600 83.004 C 163.109 81.616,168.497 77.934,172.200 75.760 C 175.794 73.649,176.572 73.224,178.800 72.149 C 180.010 71.565,181.318 70.812,181.707 70.475 C 182.096 70.139,183.266 69.551,184.307 69.169 C 185.348 68.787,187.190 68.071,188.400 67.578 C 194.916 64.925,197.296 64.013,200.200 63.058 C 203.701 61.906,213.481 59.516,217.600 58.806 C 219.030 58.559,220.920 58.107,221.800 57.801 C 225.950 56.359,260.390 55.613,269.200 56.775 C 271.070 57.022,273.950 57.386,275.600 57.583 C 292.840 59.649,319.177 70.293,331.728 80.268 C 332.788 81.111,334.509 82.430,335.552 83.200 C 341.027 87.243,351.939 97.975,353.351 100.705 C 353.719 101.417,354.191 102.000,354.400 102.000 C 354.608 102.000,355.945 103.575,357.370 105.500 C 358.795 107.425,360.589 109.824,361.355 110.830 C 362.121 111.837,363.208 113.637,363.770 114.830 C 364.332 116.024,365.843 118.710,367.129 120.800 C 369.590 124.801,370.520 126.761,373.196 133.600 C 374.100 135.910,375.079 138.340,375.371 139.000 C 377.229 143.192,380.203 154.147,381.181 160.400 C 381.440 162.050,381.992 164.840,382.409 166.600 C 382.888 168.625,383.329 172.812,383.610 178.000 C 384.321 191.156,384.644 192.404,386.502 189.167 C 392.708 178.356,387.713 138.432,377.423 116.600 C 376.904 115.500,375.993 113.520,375.398 112.200 C 373.689 108.409,370.759 102.658,370.202 102.000 C 369.922 101.670,369.291 100.590,368.800 99.600 C 368.309 98.610,367.619 97.473,367.267 97.073 C 366.915 96.673,366.261 95.743,365.813 95.007 C 365.366 94.270,364.306 92.527,363.457 91.134 C 362.608 89.740,361.168 87.774,360.257 86.764 C 359.346 85.754,357.188 83.105,355.462 80.876 C 350.980 75.088,337.299 61.770,332.600 58.620 C 331.500 57.883,329.552 56.359,328.272 55.235 C 326.991 54.111,325.371 52.899,324.672 52.542 C 323.972 52.185,321.997 50.827,320.282 49.524 C 318.567 48.222,316.317 46.793,315.282 46.349 C 314.247 45.906,313.102 45.273,312.737 44.943 C 311.840 44.131,308.649 42.397,303.600 39.976 C 301.290 38.869,297.498 36.998,295.174 35.819 C 292.850 34.640,290.060 33.409,288.974 33.085 C 287.888 32.760,284.930 31.694,282.400 30.715 C 272.847 27.021,264.026 24.589,248.400 21.342 C 238.265 19.236,211.613 17.281,206.000 18.233 M259.800 72.167 C 255.235 73.633,250.798 76.809,248.855 80.000 C 247.629 82.015,247.711 82.880,249.100 82.570 C 251.226 82.097,251.802 81.889,252.051 81.501 C 252.348 81.039,255.098 80.503,256.100 80.713 C 257.112 80.924,256.961 81.598,255.900 81.609 C 253.583 81.631,248.800 85.090,248.800 86.744 C 248.800 89.029,252.376 90.497,257.546 90.334 L 261.800 90.200 265.014 88.312 C 268.247 86.413,275.843 80.022,277.043 78.190 C 277.976 76.767,277.563 76.191,274.518 74.671 C 268.729 71.780,263.680 70.921,259.800 72.167 M221.800 74.482 C 212.355 77.779,205.177 89.784,207.050 99.150 C 207.447 101.136,208.143 100.660,210.930 96.500 C 213.498 92.667,216.855 88.800,217.614 88.800 C 218.637 88.800,217.264 92.785,215.832 93.974 C 213.982 95.508,210.869 103.034,211.554 104.314 C 213.365 107.697,223.284 104.592,227.331 99.374 C 232.053 93.285,237.474 75.137,234.800 74.367 C 233.254 73.923,223.147 74.012,221.800 74.482 M306.100 87.865 C 304.572 88.482,306.606 101.378,308.943 105.888 C 311.806 111.412,320.037 115.905,322.600 113.342 C 323.447 112.496,323.212 111.577,320.969 106.960 C 319.216 103.353,318.911 102.400,319.510 102.400 C 319.899 102.400,323.871 107.679,324.467 108.988 C 325.626 111.532,327.600 109.615,327.600 105.945 C 327.600 104.289,325.302 97.383,324.541 96.751 C 324.184 96.455,323.460 95.528,322.932 94.692 C 320.729 91.203,309.308 86.570,306.100 87.865 M287.593 93.752 C 285.813 94.968,280.962 100.635,279.395 103.328 C 275.765 109.569,276.354 119.884,280.573 123.974 C 282.242 125.592,282.448 125.304,282.661 121.059 C 282.892 116.470,283.109 115.406,283.978 114.620 C 284.896 113.789,285.512 116.411,285.018 119.044 C 284.020 124.367,285.787 127.316,288.875 125.479 C 295.354 121.623,297.162 110.999,293.212 100.000 C 293.014 99.450,292.578 98.006,292.242 96.792 C 291.190 92.989,289.922 92.160,287.593 93.752 M176.200 98.645 C 170.652 99.666,168.018 101.452,169.200 103.392 C 178.154 118.089,186.012 123.429,194.187 120.371 C 198.393 118.797,198.226 117.625,193.100 112.744 C 187.854 107.748,189.989 107.395,196.301 112.215 C 201.259 116.001,199.255 108.054,193.950 102.893 C 189.539 98.602,183.842 97.239,176.200 98.645 M243.535 104.277 C 241.581 106.627,243.497 125.064,245.980 127.800 C 246.380 128.240,247.003 129.187,247.366 129.904 C 248.667 132.479,255.481 136.002,257.436 135.111 C 258.571 134.594,258.919 133.258,258.427 131.312 C 258.217 130.480,257.860 129.080,257.632 128.200 C 256.013 121.931,258.239 122.757,260.403 129.229 C 262.641 135.920,265.337 130.539,264.226 121.600 C 263.441 115.284,259.502 110.615,251.600 106.637 C 245.923 103.778,244.336 103.314,243.535 104.277 M338.297 113.298 C 336.410 114.731,333.415 125.422,333.795 129.368 C 334.286 134.460,335.807 137.402,339.067 139.561 C 342.694 141.963,343.989 141.000,344.014 135.881 C 344.022 134.211,344.260 132.582,344.578 132.006 L 345.129 131.012 345.344 132.406 C 345.462 133.173,345.642 134.572,345.743 135.515 C 345.845 136.459,346.222 137.679,346.582 138.228 L 347.236 139.226 348.423 138.039 C 351.263 135.198,352.088 127.021,349.980 122.600 C 347.869 118.172,340.063 111.957,338.297 113.298 M225.200 116.547 C 217.286 119.599,215.014 121.275,212.111 126.209 C 208.893 131.676,208.177 139.723,210.665 142.472 C 211.413 143.298,212.351 142.359,212.386 140.749 C 212.394 140.390,213.210 138.633,214.200 136.843 C 215.190 135.053,216.000 133.412,216.000 133.195 C 216.000 132.978,216.180 132.800,216.400 132.800 C 217.124 132.800,216.818 135.060,215.775 137.417 C 212.497 144.831,214.390 147.035,221.069 143.581 C 226.661 140.690,229.208 135.459,230.213 124.800 C 231.211 114.222,231.215 114.229,225.200 116.547 M153.008 118.229 C 151.091 120.298,150.397 130.474,151.965 133.516 C 152.997 135.517,155.398 138.251,157.158 139.428 C 157.951 139.958,158.991 140.676,159.469 141.024 C 161.276 142.340,166.400 143.066,166.400 142.006 C 166.400 141.840,165.410 140.707,164.200 139.487 C 162.398 137.671,162.003 137.028,162.017 135.935 L 162.034 134.600 163.517 136.257 C 169.421 142.854,173.227 142.300,173.191 134.850 C 173.168 129.866,165.461 122.219,156.217 118.008 C 154.013 117.004,154.152 116.994,153.008 118.229 M301.204 132.900 C 298.337 136.251,293.605 144.976,291.388 151.000 C 290.821 152.540,289.990 154.790,289.542 156.000 C 287.936 160.336,285.783 168.892,284.578 175.724 C 283.435 182.207,283.965 199.138,285.595 208.200 C 286.268 211.940,287.083 216.683,287.405 218.739 C 287.728 220.795,288.264 223.393,288.596 224.512 C 288.928 225.630,289.200 226.965,289.200 227.478 C 289.200 227.991,289.908 231.333,290.774 234.905 C 291.639 238.477,292.463 242.210,292.605 243.200 C 292.746 244.190,293.287 246.710,293.808 248.800 C 295.347 254.983,296.312 259.502,297.183 264.600 C 297.633 267.240,298.207 270.330,298.457 271.466 C 299.459 276.017,299.058 275.842,291.000 268.214 C 285.684 263.182,282.505 260.476,279.753 258.642 C 278.899 258.072,276.940 256.706,275.400 255.605 C 269.849 251.636,257.668 245.662,250.874 243.577 C 248.743 242.923,245.281 241.851,243.179 241.194 C 241.078 240.537,238.738 239.996,237.979 239.991 C 233.674 239.964,228.049 237.975,220.200 233.702 C 217.332 232.141,208.540 223.463,207.534 221.200 C 207.093 220.210,206.212 218.950,205.575 218.400 C 203.444 216.560,198.829 207.575,195.609 199.000 C 194.701 196.580,193.517 193.587,192.979 192.350 C 192.440 191.112,192.000 189.888,192.000 189.628 C 192.000 189.368,191.672 188.401,191.271 187.478 C 190.870 186.555,190.358 185.353,190.133 184.806 C 187.999 179.614,188.767 198.986,190.968 205.887 C 191.304 206.939,191.864 208.790,192.212 210.000 C 193.666 215.046,198.183 224.607,200.624 227.805 C 201.336 228.737,202.130 229.895,202.388 230.378 C 202.646 230.860,203.700 232.192,204.729 233.336 C 205.758 234.481,207.030 236.043,207.556 236.809 C 208.651 238.402,213.566 242.803,214.917 243.400 C 215.415 243.620,216.447 244.256,217.211 244.814 C 220.470 247.193,226.086 249.506,233.205 251.401 C 238.741 252.875,250.602 257.423,254.766 259.668 C 256.125 260.401,258.084 261.450,259.119 262.000 C 268.025 266.734,275.620 272.350,281.200 278.328 C 284.711 282.089,287.600 285.459,287.600 285.791 C 287.600 285.942,288.230 287.013,289.000 288.173 C 293.380 294.773,297.200 306.537,297.200 313.430 C 297.200 316.273,296.620 318.523,293.447 328.000 C 291.323 334.344,288.830 342.325,288.075 345.200 C 287.642 346.850,287.009 349.100,286.670 350.200 C 285.556 353.811,282.875 364.562,282.630 366.400 C 282.407 368.070,281.572 371.738,280.153 377.281 C 279.832 378.535,279.386 381.674,279.162 384.256 C 278.937 386.838,278.635 389.142,278.489 389.375 C 278.344 389.609,277.998 392.140,277.722 395.000 C 277.445 397.860,277.040 401.550,276.822 403.200 C 276.014 409.303,275.816 419.349,276.492 419.911 C 277.346 420.619,327.719 420.441,328.433 419.727 C 328.797 419.363,328.732 419.032,328.153 418.292 C 322.897 411.580,320.584 408.469,317.888 404.484 C 312.510 396.534,308.081 383.334,307.526 373.600 C 307.099 366.110,307.133 351.804,307.582 350.000 C 307.773 349.230,308.053 347.340,308.204 345.800 C 308.964 338.020,314.915 319.719,317.758 316.416 C 318.050 316.077,318.941 314.630,319.738 313.200 C 320.536 311.770,321.551 310.150,321.994 309.600 C 322.438 309.050,324.105 306.794,325.700 304.586 C 327.295 302.378,329.957 298.958,331.617 296.986 C 333.276 295.014,335.045 292.860,335.549 292.200 C 336.634 290.780,339.786 287.156,342.652 284.035 C 350.222 275.791,353.200 272.401,353.200 272.024 C 353.200 271.787,354.145 270.543,355.300 269.260 C 356.455 267.977,358.120 265.711,359.000 264.225 C 359.880 262.738,361.275 260.718,362.100 259.736 C 362.925 258.755,363.600 257.710,363.600 257.416 C 363.600 257.121,364.249 255.917,365.043 254.740 C 366.554 252.499,368.694 248.384,369.588 246.000 C 369.877 245.230,370.707 243.250,371.431 241.600 C 373.778 236.257,374.982 228.650,373.668 227.462 C 372.748 226.629,371.526 228.200,368.584 234.000 C 366.344 238.416,363.847 242.574,362.578 244.000 C 362.088 244.550,361.301 245.720,360.828 246.600 C 359.867 248.388,358.656 250.117,356.654 252.560 C 355.912 253.465,354.782 255.015,354.143 256.003 C 353.049 257.693,342.932 268.062,341.709 268.747 C 340.301 269.535,330.108 279.400,323.464 286.406 C 317.932 292.239,317.728 292.243,316.834 286.532 C 315.824 280.083,315.136 276.080,314.335 272.000 C 313.881 269.690,313.335 266.810,313.122 265.600 C 311.507 256.445,308.170 245.242,300.492 223.200 C 293.884 204.233,293.125 200.469,293.344 187.800 C 293.534 176.818,293.981 170.975,294.978 166.400 C 295.338 164.750,295.974 161.600,296.391 159.400 C 297.488 153.617,298.321 150.230,299.185 148.037 C 299.603 146.978,300.151 144.961,300.403 143.555 C 300.656 142.150,301.205 140.220,301.623 139.267 C 303.284 135.486,302.977 130.827,301.204 132.900 M317.061 140.503 C 316.211 141.353,314.398 146.364,313.004 151.720 C 310.786 160.239,313.078 168.917,318.497 172.514 C 323.742 175.995,324.057 175.374,324.389 160.900 C 324.412 159.861,325.138 160.461,325.771 162.044 C 326.314 163.402,327.149 169.317,327.190 172.100 C 327.225 174.481,329.456 172.436,331.202 168.423 C 335.648 158.199,331.959 148.553,320.600 140.708 C 318.658 139.367,318.222 139.342,317.061 140.503 M192.283 142.700 C 190.772 145.456,188.800 154.305,188.800 158.325 C 188.801 164.490,192.585 170.400,196.531 170.400 C 198.072 170.400,198.363 169.623,198.485 165.177 C 198.621 160.230,199.515 160.796,200.320 166.340 C 200.852 170.010,200.793 169.967,202.719 168.080 C 206.816 164.063,205.573 151.399,200.744 147.960 C 200.089 147.494,198.979 146.573,198.277 145.913 C 195.224 143.047,192.804 141.750,192.283 142.700 M273.750 144.190 C 270.790 144.727,264.479 146.725,262.486 147.755 C 256.015 151.102,251.592 162.983,254.631 168.859 C 255.583 170.701,256.387 170.156,257.765 166.735 C 259.053 163.540,261.243 160.400,262.186 160.400 C 262.487 160.400,262.824 160.175,262.935 159.900 C 263.046 159.625,263.151 159.794,263.168 160.276 C 263.186 160.758,263.020 161.264,262.800 161.400 C 262.580 161.536,262.400 161.935,262.400 162.287 C 262.400 162.639,261.660 164.533,260.755 166.497 C 258.642 171.084,258.553 172.374,260.288 173.242 C 264.317 175.259,272.014 170.919,274.942 164.980 C 278.093 158.592,279.457 143.239,276.838 143.636 C 276.707 143.656,275.317 143.905,273.750 144.190 M154.948 152.100 C 153.163 155.549,152.537 164.887,153.772 169.628 C 155.638 176.792,164.133 184.669,170.489 185.129 C 173.803 185.369,173.880 184.682,170.917 181.301 C 167.802 177.746,166.800 176.263,166.800 175.205 C 166.800 173.924,167.164 174.186,171.937 178.900 C 177.488 184.383,178.458 184.443,179.796 179.388 C 181.187 174.135,179.155 169.252,172.733 162.410 C 171.179 160.755,169.122 158.950,168.161 158.400 C 167.200 157.850,164.232 155.915,161.565 154.100 C 156.085 150.370,155.876 150.307,154.948 152.100 M359.800 152.392 C 353.340 153.811,348.149 158.145,347.368 162.773 C 347.235 163.558,346.969 164.818,346.775 165.573 C 346.404 167.025,346.832 168.000,347.842 168.000 C 348.494 168.000,351.200 165.449,351.200 164.833 C 351.200 164.595,351.464 164.400,351.787 164.400 C 352.561 164.400,352.196 165.377,350.707 167.290 C 347.320 171.645,353.878 174.039,358.531 170.146 C 359.153 169.626,359.791 169.200,359.948 169.200 C 362.268 169.200,368.651 153.744,366.803 152.602 C 366.048 152.135,361.580 152.001,359.800 152.392 M234.975 157.900 C 225.572 163.328,223.280 165.595,221.260 171.464 C 219.340 177.046,219.796 185.501,222.094 186.951 C 222.993 187.518,223.021 187.469,224.010 183.654 C 224.961 179.984,226.061 177.810,227.301 177.146 C 228.213 176.658,228.261 176.175,226.837 181.800 C 224.908 189.423,227.027 191.720,232.550 187.992 C 237.860 184.408,239.356 180.154,239.439 168.400 C 239.520 156.815,238.995 155.580,234.975 157.900 M370.170 186.976 C 369.021 187.468,364.950 190.787,359.462 195.705 C 353.509 201.040,350.263 207.949,351.335 213.000 C 352.812 219.960,354.707 220.920,358.053 216.400 C 359.111 214.970,360.267 213.470,360.622 213.067 C 360.976 212.664,361.629 211.719,362.072 210.967 C 362.516 210.215,363.041 209.600,363.240 209.600 C 363.438 209.600,363.600 209.330,363.600 209.000 C 363.600 208.670,363.780 208.400,364.000 208.400 C 364.620 208.400,364.460 209.629,363.591 211.544 C 363.156 212.503,362.800 213.514,362.800 213.791 C 362.800 214.069,362.080 215.200,361.200 216.305 C 358.415 219.803,359.047 220.874,363.013 219.380 C 366.634 218.018,371.519 213.688,372.803 210.705 C 373.289 209.575,374.062 208.143,374.520 207.523 C 376.010 205.508,375.965 200.350,374.399 193.707 C 372.873 187.231,372.174 186.119,370.170 186.976 M310.682 189.208 C 310.550 189.713,310.718 190.773,311.055 191.563 C 311.392 192.353,312.198 194.484,312.845 196.298 C 313.492 198.112,314.547 200.452,315.190 201.498 C 315.833 202.544,316.853 204.266,317.456 205.323 C 320.388 210.465,328.087 213.722,333.143 211.960 C 335.627 211.094,335.193 209.548,331.115 204.740 C 328.328 201.453,328.164 200.037,330.725 201.361 C 331.738 201.885,335.382 205.710,336.114 207.017 C 337.663 209.785,338.564 205.900,337.355 201.662 C 334.823 192.777,329.193 189.079,317.422 188.571 L 310.922 188.291 310.682 189.208 M265.491 200.365 C 260.052 206.828,257.068 219.033,259.315 225.623 C 262.730 235.639,266.229 235.715,267.983 225.812 C 268.801 221.192,269.712 221.562,269.430 226.400 C 268.932 234.922,268.876 234.186,270.035 234.320 C 271.057 234.439,274.000 231.819,274.000 230.791 C 274.000 230.567,274.481 229.623,275.069 228.692 C 277.402 225.001,276.800 216.188,273.788 209.940 C 268.679 199.341,267.498 197.979,265.491 200.365 M242.600 200.792 C 242.160 200.985,240.974 201.156,239.964 201.172 C 230.649 201.315,221.987 208.722,222.006 216.529 C 222.015 220.044,222.487 220.570,224.042 218.800 C 226.651 215.832,227.731 214.800,228.228 214.800 C 228.942 214.800,228.276 217.055,227.234 218.164 C 225.496 220.016,224.732 222.499,225.625 223.398 C 229.074 226.869,239.980 220.852,242.661 214.000 C 246.196 204.966,246.914 202.348,246.082 201.525 C 245.217 200.670,243.634 200.336,242.600 200.792 M323.421 230.500 C 319.496 243.287,321.198 252.746,327.889 255.332 C 331.905 256.884,332.998 255.583,332.191 250.208 C 331.572 246.086,331.895 243.820,332.772 246.126 C 333.007 246.745,333.200 247.502,333.200 247.807 C 333.200 248.113,333.362 248.776,333.560 249.281 C 333.758 249.787,334.126 250.967,334.377 251.905 C 334.941 254.005,335.879 253.743,337.299 251.087 C 338.554 248.737,338.623 241.454,337.413 239.013 C 335.018 234.182,324.294 227.657,323.421 230.500 " stroke="none" fill="#b89c60" fill-rule="evenodd"></path><path id="path1" d="M0.000 218.800 L 0.000 437.600 200.000 437.600 L 400.000 437.600 400.000 218.800 L 400.000 0.000 200.000 0.000 L 0.000 0.000 0.000 218.800 M231.800 19.044 C 242.916 20.142,244.114 20.341,258.000 23.392 C 265.362 25.009,275.560 28.070,282.400 30.715 C 284.930 31.694,287.888 32.760,288.974 33.085 C 290.060 33.409,292.850 34.640,295.174 35.819 C 297.498 36.998,301.290 38.869,303.600 39.976 C 308.649 42.397,311.840 44.131,312.737 44.943 C 313.102 45.273,314.247 45.906,315.282 46.349 C 316.317 46.793,318.567 48.222,320.282 49.524 C 321.997 50.827,323.972 52.185,324.672 52.542 C 325.371 52.899,326.991 54.111,328.272 55.235 C 329.552 56.359,331.500 57.883,332.600 58.620 C 337.299 61.770,350.980 75.088,355.462 80.876 C 357.188 83.105,359.346 85.754,360.257 86.764 C 361.168 87.774,362.608 89.740,363.457 91.134 C 364.306 92.527,365.366 94.270,365.813 95.007 C 366.261 95.743,366.915 96.673,367.267 97.073 C 367.619 97.473,368.309 98.610,368.800 99.600 C 369.291 100.590,369.922 101.670,370.202 102.000 C 370.759 102.658,373.689 108.409,375.398 112.200 C 375.993 113.520,376.904 115.500,377.423 116.600 C 387.713 138.432,392.708 178.356,386.502 189.167 C 384.644 192.404,384.321 191.156,383.610 178.000 C 383.329 172.812,382.888 168.625,382.409 166.600 C 381.992 164.840,381.440 162.050,381.181 160.400 C 380.203 154.147,377.229 143.192,375.371 139.000 C 375.079 138.340,374.100 135.910,373.196 133.600 C 370.520 126.761,369.590 124.801,367.129 120.800 C 365.843 118.710,364.332 116.024,363.770 114.830 C 363.208 113.637,362.121 111.837,361.355 110.830 C 360.589 109.824,358.795 107.425,357.370 105.500 C 355.945 103.575,354.608 102.000,354.400 102.000 C 354.191 102.000,353.719 101.417,353.351 100.705 C 351.939 97.975,341.027 87.243,335.552 83.200 C 334.509 82.430,332.788 81.111,331.728 80.268 C 319.177 70.293,292.840 59.649,275.600 57.583 C 273.950 57.386,271.070 57.022,269.200 56.775 C 260.390 55.613,225.950 56.359,221.800 57.801 C 220.920 58.107,219.030 58.559,217.600 58.806 C 213.481 59.516,203.701 61.906,200.200 63.058 C 197.296 64.013,194.916 64.925,188.400 67.578 C 187.190 68.071,185.348 68.787,184.307 69.169 C 183.266 69.551,182.096 70.139,181.707 70.475 C 181.318 70.812,180.010 71.565,178.800 72.149 C 176.572 73.224,175.794 73.649,172.200 75.760 C 168.497 77.934,163.109 81.616,161.600 83.004 C 161.050 83.510,159.430 84.721,158.000 85.695 C 154.165 88.308,141.840 100.755,139.082 104.800 C 138.407 105.790,137.629 106.737,137.354 106.905 C 137.078 107.073,136.300 108.177,135.624 109.358 C 134.948 110.540,134.111 111.742,133.765 112.029 C 133.418 112.317,132.603 113.553,131.953 114.776 C 131.303 115.999,130.396 117.630,129.938 118.400 C 126.253 124.590,125.095 126.705,123.465 130.225 C 122.439 132.439,121.600 134.487,121.600 134.775 C 121.600 135.063,120.958 136.721,120.174 138.458 C 117.835 143.638,114.325 156.388,113.583 162.400 C 113.352 164.270,112.979 166.700,112.754 167.800 C 112.174 170.640,112.562 186.466,113.406 194.400 C 114.306 202.862,112.094 211.051,107.246 217.200 C 106.638 217.970,105.707 219.500,105.176 220.600 C 104.644 221.700,103.532 223.422,102.705 224.426 C 101.877 225.430,101.200 226.473,101.200 226.745 C 101.200 227.016,100.708 227.694,100.106 228.252 C 98.956 229.318,96.469 232.587,95.294 234.577 C 94.913 235.224,93.867 236.574,92.971 237.577 C 92.075 238.579,90.915 240.120,90.394 241.000 C 89.873 241.880,88.806 243.340,88.023 244.245 C 85.945 246.647,83.248 252.188,82.749 255.083 C 82.035 259.222,83.096 260.133,92.035 263.057 C 99.868 265.620,100.421 266.751,99.632 278.600 C 99.369 282.560,98.894 286.936,98.577 288.325 C 96.810 296.060,100.945 300.513,109.183 299.747 C 113.772 299.320,113.318 300.875,108.163 303.235 C 101.150 306.446,100.327 311.945,105.846 318.720 L 107.575 320.842 107.325 326.633 C 106.785 339.136,111.341 348.875,120.570 354.943 C 127.964 359.805,131.120 360.228,150.457 358.955 C 164.528 358.028,169.026 359.002,177.688 364.850 C 182.227 367.915,190.719 377.277,192.337 381.000 C 192.624 381.660,193.337 383.010,193.922 384.000 C 200.136 394.515,203.218 413.243,199.410 417.351 C 198.166 418.693,193.342 418.839,189.199 417.661 C 187.769 417.254,185.340 416.706,183.800 416.443 C 176.286 415.158,152.917 408.962,146.800 406.631 C 146.030 406.338,144.500 405.822,143.400 405.486 C 142.300 405.149,139.240 403.939,136.600 402.797 C 133.960 401.655,130.397 400.121,128.681 399.388 C 126.966 398.655,122.826 396.563,119.481 394.738 C 116.137 392.914,112.267 390.856,110.883 390.164 C 109.499 389.473,107.695 388.368,106.875 387.709 C 106.055 387.049,104.624 386.122,103.695 385.648 C 102.766 385.175,100.520 383.665,98.703 382.293 C 96.886 380.922,95.021 379.599,94.559 379.354 C 94.096 379.109,91.962 377.489,89.817 375.754 C 87.673 374.019,85.524 372.330,85.043 372.000 C 80.801 369.089,76.905 365.433,64.619 352.835 C 62.299 350.456,60.400 348.303,60.400 348.051 C 60.400 347.799,59.455 346.537,58.300 345.246 C 54.551 341.056,52.581 338.632,51.597 337.000 C 51.066 336.120,49.805 334.320,48.794 333.000 C 46.367 329.832,40.800 321.409,40.800 320.905 C 40.800 320.686,40.453 320.067,40.030 319.529 C 39.606 318.990,38.156 316.404,36.807 313.781 C 35.458 311.159,34.112 308.740,33.816 308.407 C 33.519 308.073,32.525 306.090,31.607 304.000 C 30.689 301.910,29.431 299.120,28.811 297.800 C 28.191 296.480,27.285 294.230,26.797 292.800 C 26.310 291.370,25.405 289.120,24.787 287.800 C 24.168 286.480,23.364 284.238,22.999 282.818 C 22.634 281.397,22.077 279.736,21.761 279.124 C 21.445 278.513,20.739 276.165,20.193 273.907 C 19.646 271.648,18.840 268.540,18.400 267.000 C 16.718 261.104,15.583 255.943,15.253 252.685 C 15.064 250.824,14.754 249.053,14.563 248.751 C 14.373 248.448,14.000 246.040,13.734 243.400 C 13.469 240.760,13.055 236.673,12.815 234.319 C 11.906 225.393,12.885 194.458,14.243 189.200 C 14.385 188.650,14.642 187.030,14.813 185.600 C 15.373 180.920,16.099 177.516,18.265 169.417 C 19.439 165.026,20.401 161.066,20.401 160.617 C 20.402 160.168,20.960 158.360,21.642 156.600 C 22.323 154.840,23.210 152.278,23.613 150.906 C 24.016 149.535,24.628 148.010,24.973 147.517 C 25.318 147.025,25.600 146.388,25.600 146.102 C 25.600 144.135,32.902 128.240,36.381 122.635 C 37.212 121.296,38.919 118.400,40.173 116.200 C 41.428 114.000,43.117 111.198,43.927 109.974 C 44.737 108.750,45.980 106.860,46.689 105.774 C 48.012 103.747,50.677 99.979,53.692 95.874 C 54.631 94.594,56.490 92.254,57.822 90.674 C 59.155 89.093,60.552 87.350,60.928 86.800 C 62.272 84.833,77.469 69.854,81.000 67.016 C 82.980 65.425,84.870 63.797,85.200 63.399 C 85.817 62.655,92.058 57.913,94.200 56.562 C 94.860 56.145,96.868 54.679,98.662 53.302 C 100.456 51.926,102.077 50.800,102.263 50.800 C 102.450 50.800,103.502 50.150,104.601 49.355 C 105.701 48.560,107.410 47.519,108.400 47.043 C 109.390 46.566,110.920 45.711,111.800 45.143 C 114.747 43.242,116.165 42.472,122.800 39.170 C 130.557 35.310,132.634 34.339,135.600 33.185 C 136.810 32.714,138.700 31.971,139.800 31.534 C 140.900 31.096,142.970 30.316,144.400 29.800 C 145.830 29.283,147.850 28.496,148.888 28.050 C 150.452 27.378,156.661 25.700,168.400 22.776 C 169.390 22.529,171.640 22.094,173.400 21.809 C 175.160 21.524,178.040 21.006,179.800 20.659 C 183.903 19.848,189.234 19.304,198.000 18.803 C 201.850 18.582,205.450 18.326,206.000 18.233 C 207.971 17.899,225.917 18.463,231.800 19.044 M269.116 72.457 C 272.553 73.554,277.170 75.856,277.462 76.617 C 278.002 78.025,270.452 85.119,265.014 88.312 L 261.800 90.200 257.546 90.334 C 252.376 90.497,248.800 89.029,248.800 86.744 C 248.800 85.090,253.583 81.631,255.900 81.609 C 256.961 81.598,257.112 80.924,256.100 80.713 C 255.098 80.503,252.348 81.039,252.051 81.501 C 251.802 81.889,251.226 82.097,249.100 82.570 C 245.430 83.387,250.849 76.360,255.800 73.882 C 260.823 71.369,264.481 70.977,269.116 72.457 M234.800 74.367 C 237.474 75.137,232.053 93.285,227.331 99.374 C 223.284 104.592,213.365 107.697,211.554 104.314 C 210.869 103.034,213.982 95.508,215.832 93.974 C 217.264 92.785,218.637 88.800,217.614 88.800 C 216.855 88.800,213.498 92.667,210.930 96.500 C 208.143 100.660,207.447 101.136,207.050 99.150 C 205.177 89.784,212.355 77.779,221.800 74.482 C 223.147 74.012,233.254 73.923,234.800 74.367 M313.600 89.068 C 318.649 90.843,321.639 92.645,322.932 94.692 C 323.460 95.528,324.184 96.455,324.541 96.751 C 325.302 97.383,327.600 104.289,327.600 105.945 C 327.600 109.615,325.626 111.532,324.467 108.988 C 323.871 107.679,319.899 102.400,319.510 102.400 C 318.911 102.400,319.216 103.353,320.969 106.960 C 323.212 111.577,323.447 112.496,322.600 113.342 C 320.037 115.905,311.806 111.412,308.943 105.888 C 306.606 101.378,304.572 88.482,306.100 87.865 C 307.402 87.339,309.753 87.717,313.600 89.068 M290.800 93.692 C 291.257 94.183,291.906 95.578,292.242 96.792 C 292.578 98.006,293.014 99.450,293.212 100.000 C 297.162 110.999,295.354 121.623,288.875 125.479 C 285.787 127.316,284.020 124.367,285.018 119.044 C 285.512 116.411,284.896 113.789,283.978 114.620 C 283.109 115.406,282.892 116.470,282.661 121.059 C 282.448 125.304,282.242 125.592,280.573 123.974 C 278.125 121.601,277.064 118.138,277.150 112.800 C 277.254 106.338,278.225 104.037,283.400 97.980 C 287.618 93.044,289.292 92.074,290.800 93.692 M188.671 99.360 C 193.617 101.267,198.899 107.621,198.972 111.751 C 199.009 113.817,198.512 113.903,196.301 112.215 C 189.989 107.395,187.854 107.748,193.100 112.744 C 198.226 117.625,198.393 118.797,194.187 120.371 C 186.012 123.429,178.154 118.089,169.200 103.392 C 166.782 99.423,181.130 96.453,188.671 99.360 M251.600 106.637 C 259.502 110.615,263.441 115.284,264.226 121.600 C 265.337 130.539,262.641 135.920,260.403 129.229 C 258.239 122.757,256.013 121.931,257.632 128.200 C 257.860 129.080,258.217 130.480,258.427 131.312 C 258.919 133.258,258.571 134.594,257.436 135.111 C 255.481 136.002,248.667 132.479,247.366 129.904 C 247.003 129.187,246.380 128.240,245.980 127.800 C 244.240 125.882,242.732 117.777,242.871 111.087 C 243.054 102.337,243.057 102.336,251.600 106.637 M342.000 114.209 C 344.629 115.957,349.009 120.562,349.980 122.600 C 352.088 127.021,351.263 135.198,348.423 138.039 L 347.236 139.226 346.582 138.228 C 346.222 137.679,345.845 136.459,345.743 135.515 C 345.642 134.572,345.462 133.173,345.344 132.406 L 345.129 131.012 344.578 132.006 C 344.260 132.582,344.022 134.211,344.014 135.881 C 343.989 141.000,342.694 141.963,339.067 139.561 C 334.042 136.233,332.548 130.115,334.793 122.065 C 337.417 112.661,338.271 111.729,342.000 114.209 M230.171 115.829 C 230.920 116.578,230.924 117.267,230.213 124.800 C 229.208 135.459,226.661 140.690,221.069 143.581 C 214.390 147.035,212.497 144.831,215.775 137.417 C 216.818 135.060,217.124 132.800,216.400 132.800 C 216.180 132.800,216.000 132.978,216.000 133.195 C 216.000 133.412,215.190 135.053,214.200 136.843 C 213.210 138.633,212.394 140.390,212.386 140.749 C 212.351 142.359,211.413 143.298,210.665 142.472 C 207.589 139.073,209.182 129.991,214.060 123.119 C 216.482 119.707,228.577 114.234,230.171 115.829 M156.217 118.008 C 165.461 122.219,173.168 129.866,173.191 134.850 C 173.227 142.300,169.421 142.854,163.517 136.257 L 162.034 134.600 162.017 135.935 C 162.003 137.028,162.398 137.671,164.200 139.487 C 165.410 140.707,166.400 141.840,166.400 142.006 C 166.400 143.066,161.276 142.340,159.469 141.024 C 158.991 140.676,157.951 139.958,157.158 139.428 C 152.850 136.547,151.200 133.282,151.200 127.636 C 151.200 119.016,152.587 116.354,156.217 118.008 M302.648 134.967 C 302.503 136.378,302.042 138.313,301.623 139.267 C 301.205 140.220,300.656 142.150,300.403 143.555 C 300.151 144.961,299.603 146.978,299.185 148.037 C 298.321 150.230,297.488 153.617,296.391 159.400 C 295.974 161.600,295.338 164.750,294.978 166.400 C 293.981 170.975,293.534 176.818,293.344 187.800 C 293.125 200.469,293.884 204.233,300.492 223.200 C 308.170 245.242,311.507 256.445,313.122 265.600 C 313.335 266.810,313.881 269.690,314.335 272.000 C 315.136 276.080,315.824 280.083,316.834 286.532 C 317.728 292.243,317.932 292.239,323.464 286.406 C 330.108 279.400,340.301 269.535,341.709 268.747 C 342.932 268.062,353.049 257.693,354.143 256.003 C 354.782 255.015,355.912 253.465,356.654 252.560 C 358.656 250.117,359.867 248.388,360.828 246.600 C 361.301 245.720,362.088 244.550,362.578 244.000 C 363.847 242.574,366.344 238.416,368.584 234.000 C 371.526 228.200,372.748 226.629,373.668 227.462 C 374.982 228.650,373.778 236.257,371.431 241.600 C 370.707 243.250,369.877 245.230,369.588 246.000 C 368.694 248.384,366.554 252.499,365.043 254.740 C 364.249 255.917,363.600 257.121,363.600 257.416 C 363.600 257.710,362.925 258.755,362.100 259.736 C 361.275 260.718,359.880 262.738,359.000 264.225 C 358.120 265.711,356.455 267.977,355.300 269.260 C 354.145 270.543,353.200 271.787,353.200 272.024 C 353.200 272.401,350.222 275.791,342.652 284.035 C 339.786 287.156,336.634 290.780,335.549 292.200 C 335.045 292.860,333.276 295.014,331.617 296.986 C 329.957 298.958,327.295 302.378,325.700 304.586 C 324.105 306.794,322.438 309.050,321.994 309.600 C 321.551 310.150,320.536 311.770,319.738 313.200 C 318.941 314.630,318.050 316.077,317.758 316.416 C 314.915 319.719,308.964 338.020,308.204 345.800 C 308.053 347.340,307.773 349.230,307.582 350.000 C 307.133 351.804,307.099 366.110,307.526 373.600 C 308.081 383.334,312.510 396.534,317.888 404.484 C 320.584 408.469,322.897 411.580,328.153 418.292 C 328.732 419.032,328.797 419.363,328.433 419.727 C 327.719 420.441,277.346 420.619,276.492 419.911 C 275.816 419.349,276.014 409.303,276.822 403.200 C 277.040 401.550,277.445 397.860,277.722 395.000 C 277.998 392.140,278.344 389.609,278.489 389.375 C 278.635 389.142,278.937 386.838,279.162 384.256 C 279.386 381.674,279.832 378.535,280.153 377.281 C 281.572 371.738,282.407 368.070,282.630 366.400 C 282.875 364.562,285.556 353.811,286.670 350.200 C 287.009 349.100,287.642 346.850,288.075 345.200 C 288.830 342.325,291.323 334.344,293.447 328.000 C 296.620 318.523,297.200 316.273,297.200 313.430 C 297.200 306.537,293.380 294.773,289.000 288.173 C 288.230 287.013,287.600 285.942,287.600 285.791 C 287.600 285.459,284.711 282.089,281.200 278.328 C 275.620 272.350,268.025 266.734,259.119 262.000 C 258.084 261.450,256.125 260.401,254.766 259.668 C 250.602 257.423,238.741 252.875,233.205 251.401 C 226.086 249.506,220.470 247.193,217.211 244.814 C 216.447 244.256,215.415 243.620,214.917 243.400 C 213.566 242.803,208.651 238.402,207.556 236.809 C 207.030 236.043,205.758 234.481,204.729 233.336 C 203.700 232.192,202.646 230.860,202.388 230.378 C 202.130 229.895,201.336 228.737,200.624 227.805 C 198.183 224.607,193.666 215.046,192.212 210.000 C 191.864 208.790,191.304 206.939,190.968 205.887 C 188.767 198.986,187.999 179.614,190.133 184.806 C 190.358 185.353,190.870 186.555,191.271 187.478 C 191.672 188.401,192.000 189.368,192.000 189.628 C 192.000 189.888,192.440 191.112,192.979 192.350 C 193.517 193.587,194.701 196.580,195.609 199.000 C 198.829 207.575,203.444 216.560,205.575 218.400 C 206.212 218.950,207.093 220.210,207.534 221.200 C 208.540 223.463,217.332 232.141,220.200 233.702 C 228.049 237.975,233.674 239.964,237.979 239.991 C 238.738 239.996,241.078 240.537,243.179 241.194 C 245.281 241.851,248.743 242.923,250.874 243.577 C 257.668 245.662,269.849 251.636,275.400 255.605 C 276.940 256.706,278.899 258.072,279.753 258.642 C 282.505 260.476,285.684 263.182,291.000 268.214 C 299.058 275.842,299.459 276.017,298.457 271.466 C 298.207 270.330,297.633 267.240,297.183 264.600 C 296.312 259.502,295.347 254.983,293.808 248.800 C 293.287 246.710,292.746 244.190,292.605 243.200 C 292.463 242.210,291.639 238.477,290.774 234.905 C 289.908 231.333,289.200 227.991,289.200 227.478 C 289.200 226.965,288.928 225.630,288.596 224.512 C 288.264 223.393,287.728 220.795,287.405 218.739 C 287.083 216.683,286.268 211.940,285.595 208.200 C 283.965 199.138,283.435 182.207,284.578 175.724 C 285.783 168.892,287.936 160.336,289.542 156.000 C 289.990 154.790,290.821 152.540,291.388 151.000 C 293.605 144.976,298.337 136.251,301.204 132.900 C 302.368 131.539,302.918 132.326,302.648 134.967 M320.600 140.708 C 331.959 148.553,335.648 158.199,331.202 168.423 C 329.728 171.812,328.991 172.800,327.938 172.800 C 327.506 172.800,327.196 172.510,327.190 172.100 C 327.149 169.317,326.314 163.402,325.771 162.044 C 325.138 160.461,324.412 159.861,324.389 160.900 C 324.057 175.374,323.742 175.995,318.497 172.514 C 313.078 168.917,310.786 160.239,313.004 151.720 C 315.940 140.444,317.320 138.443,320.600 140.708 M195.440 143.557 C 196.298 144.194,197.575 145.254,198.277 145.913 C 198.979 146.573,200.089 147.494,200.744 147.960 C 205.573 151.399,206.816 164.063,202.719 168.080 C 200.793 169.967,200.852 170.010,200.320 166.340 C 199.515 160.796,198.621 160.230,198.485 165.177 C 198.363 169.623,198.072 170.400,196.531 170.400 C 192.585 170.400,188.801 164.490,188.800 158.325 C 188.800 154.305,190.772 145.456,192.283 142.700 C 192.622 142.082,193.930 142.437,195.440 143.557 M277.743 144.337 C 278.582 145.264,277.953 155.774,276.803 160.023 C 274.866 167.185,269.945 172.574,264.572 173.417 C 258.707 174.337,257.855 172.792,260.755 166.497 C 261.660 164.533,262.400 162.639,262.400 162.287 C 262.400 161.935,262.580 161.536,262.800 161.400 C 263.020 161.264,263.186 160.758,263.168 160.276 C 263.151 159.794,263.046 159.625,262.935 159.900 C 262.824 160.175,262.487 160.400,262.186 160.400 C 261.243 160.400,259.053 163.540,257.765 166.735 C 256.387 170.156,255.583 170.701,254.631 168.859 C 251.592 162.983,256.015 151.102,262.486 147.755 C 265.274 146.314,272.099 144.355,276.838 143.636 C 276.969 143.616,277.376 143.931,277.743 144.337 M161.565 154.100 C 164.232 155.915,167.200 157.850,168.161 158.400 C 169.122 158.950,171.179 160.755,172.733 162.410 C 179.155 169.252,181.187 174.135,179.796 179.388 C 178.458 184.443,177.488 184.383,171.937 178.900 C 167.164 174.186,166.800 173.924,166.800 175.205 C 166.800 176.263,167.802 177.746,170.917 181.301 C 174.891 185.836,171.615 186.911,165.108 183.209 C 155.281 177.618,150.766 166.570,153.742 155.400 C 155.200 149.932,155.393 149.900,161.565 154.100 M366.803 152.602 C 368.651 153.744,362.268 169.200,359.948 169.200 C 359.791 169.200,359.153 169.626,358.531 170.146 C 353.878 174.039,347.320 171.645,350.707 167.290 C 352.196 165.377,352.561 164.400,351.787 164.400 C 351.464 164.400,351.200 164.595,351.200 164.833 C 351.200 165.449,348.494 168.000,347.842 168.000 C 346.832 168.000,346.404 167.025,346.775 165.573 C 346.969 164.818,347.235 163.558,347.368 162.773 C 347.969 159.216,352.110 154.911,356.400 153.384 C 360.075 152.076,365.315 151.682,366.803 152.602 M238.943 158.100 C 240.116 159.980,239.599 177.280,238.280 180.308 C 236.060 185.404,232.594 188.904,229.236 189.441 C 225.845 189.983,225.247 188.081,226.837 181.800 C 228.261 176.175,228.213 176.658,227.301 177.146 C 226.061 177.810,224.961 179.984,224.010 183.654 C 223.021 187.469,222.993 187.518,222.094 186.951 C 219.796 185.501,219.340 177.046,221.260 171.464 C 223.280 165.595,225.572 163.328,234.975 157.900 C 236.674 156.919,238.256 156.999,238.943 158.100 M374.399 193.707 C 375.965 200.350,376.010 205.508,374.520 207.523 C 374.062 208.143,373.289 209.575,372.803 210.705 C 371.519 213.688,366.634 218.018,363.013 219.380 C 359.047 220.874,358.415 219.803,361.200 216.305 C 362.080 215.200,362.800 214.069,362.800 213.791 C 362.800 213.514,363.156 212.503,363.591 211.544 C 364.460 209.629,364.620 208.400,364.000 208.400 C 363.780 208.400,363.600 208.670,363.600 209.000 C 363.600 209.330,363.438 209.600,363.240 209.600 C 363.041 209.600,362.516 210.215,362.072 210.967 C 361.629 211.719,360.976 212.664,360.622 213.067 C 360.267 213.470,359.111 214.970,358.053 216.400 C 354.707 220.920,352.812 219.960,351.335 213.000 C 350.263 207.949,353.509 201.040,359.462 195.705 C 372.136 184.346,372.191 184.339,374.399 193.707 M325.956 189.388 C 332.040 190.993,338.000 199.096,338.000 205.762 C 338.000 207.682,336.897 208.416,336.114 207.017 C 335.382 205.710,331.738 201.885,330.725 201.361 C 328.164 200.037,328.328 201.453,331.115 204.740 C 335.193 209.548,335.627 211.094,333.143 211.960 C 328.087 213.722,320.388 210.465,317.456 205.323 C 316.853 204.266,315.833 202.544,315.190 201.498 C 314.547 200.452,313.492 198.112,312.845 196.298 C 312.198 194.484,311.392 192.353,311.055 191.563 C 310.718 190.773,310.550 189.713,310.682 189.208 L 310.922 188.291 317.422 188.571 C 320.997 188.725,324.837 189.093,325.956 189.388 M267.944 199.557 C 269.478 200.529,275.448 212.861,276.045 216.292 C 276.817 220.723,276.349 226.667,275.069 228.692 C 274.481 229.623,274.000 230.567,274.000 230.791 C 274.000 231.819,271.057 234.439,270.035 234.320 C 268.876 234.186,268.932 234.922,269.430 226.400 C 269.712 221.562,268.801 221.192,267.983 225.812 C 266.544 233.938,264.542 235.428,261.605 230.559 C 257.127 223.138,257.318 215.661,262.232 206.006 C 265.351 199.878,266.465 198.620,267.944 199.557 M246.082 201.525 C 246.914 202.348,246.196 204.966,242.661 214.000 C 239.980 220.852,229.074 226.869,225.625 223.398 C 224.732 222.499,225.496 220.016,227.234 218.164 C 228.276 217.055,228.942 214.800,228.228 214.800 C 227.731 214.800,226.651 215.832,224.042 218.800 C 222.487 220.570,222.015 220.044,222.006 216.529 C 221.987 208.722,230.649 201.315,239.964 201.172 C 240.974 201.156,242.160 200.985,242.600 200.792 C 243.634 200.336,245.217 200.670,246.082 201.525 M329.202 231.455 C 335.663 234.688,338.200 238.506,338.200 245.000 C 338.200 251.324,335.521 256.163,334.377 251.905 C 334.126 250.967,333.758 249.787,333.560 249.281 C 333.362 248.776,333.200 248.113,333.200 247.807 C 333.200 247.502,333.007 246.745,332.772 246.126 C 331.895 243.820,331.572 246.086,332.191 250.208 C 332.998 255.583,331.905 256.884,327.889 255.332 C 321.198 252.746,319.496 243.287,323.421 230.500 C 323.709 229.565,326.268 229.988,329.202 231.455 " stroke="none" fill="#045d7a" fill-rule="evenodd"></path></g></svg>